HIERARCHY
ROOT hip
{
  OFFSET 0 90.174 2.4664
  CHANNELS 6 Xposition Yposition Zposition Zrotation Xrotation Yrotation
  JOINT abdomen
  {
    OFFSET 0 -1.186 -1.5018
    CHANNELS 6 Xposition Yposition Zposition Zrotation Xrotation Yrotation
    JOINT abdomen2
    {
      OFFSET 0 9.964 0.2134
      CHANNELS 6 Xposition Yposition Zposition Zrotation Xrotation Yrotation
      JOINT chest
      {
        OFFSET 0 13.134 -3.2573
        CHANNELS 6 Xposition Yposition Zposition Zrotation Xrotation Yrotation
        JOINT neck
        {
          OFFSET 0 20.686 -1.6905
          CHANNELS 6 Xposition Yposition Zposition Zrotation Xrotation Yrotation
          JOINT head
          {
            OFFSET 0 7.238 -0.1237
            CHANNELS 6 Xposition Yposition Zposition Zrotation Xrotation Yrotation
            End Site
            {
              OFFSET 0 0 0
            }
          }
        }
        JOINT lCollar
        {
          OFFSET 1.7069 20.075 5.0056
          CHANNELS 6 Xposition Yposition Zposition Zrotation Xrotation Yrotation
          JOINT lShldr
          {
            OFFSET 13.6458 -0.047 -4.849
            CHANNELS 6 Xposition Yposition Zposition Zrotation Xrotation Yrotation
            JOINT lForeArm
            {
              OFFSET 28.3255 -0.9759 2.2888
              CHANNELS 6 Xposition Yposition Zposition Zrotation Xrotation Yrotation
              JOINT lHand
              {
                OFFSET 22.1583 -0.53 10.8316
                CHANNELS 6 Xposition Yposition Zposition Zrotation Xrotation Yrotation
                JOINT lThumb1
                {
                  OFFSET 0.786 0.112 2.5817
                  CHANNELS 6 Xposition Yposition Zposition Zrotation Xrotation Yrotation
                  JOINT lThumb2
                  {
                    OFFSET 0.3601 -0.878 4.2331
                    CHANNELS 6 Xposition Yposition Zposition Zrotation Xrotation Yrotation
                    JOINT lThumb2_End
                    {
                      OFFSET 1.8127 -1.216 2.2227
                      CHANNELS 6 Xposition Yposition Zposition Zrotation Xrotation Yrotation
                      End Site
                      {
                        OFFSET 0.0181 -0.0122 0.0222
                      }
                    }
                  }
                }
                JOINT lCarpal1
                {
                  OFFSET 0.9571 1.114 1.7695
                  CHANNELS 6 Xposition Yposition Zposition Zrotation Xrotation Yrotation
                  JOINT lIndex1
                  {
                    OFFSET 4.1246 0.487 4.1451
                    CHANNELS 6 Xposition Yposition Zposition Zrotation Xrotation Yrotation
                    JOINT lIndex2
                    {
                      OFFSET 3.4052 -1.454 2.7682
                      CHANNELS 6 Xposition Yposition Zposition Zrotation Xrotation Yrotation
                      JOINT lIndex2_End
                      {
                        OFFSET 1.4531 -1.795 1.2713
                        CHANNELS 6 Xposition Yposition Zposition Zrotation Xrotation Yrotation
                        End Site
                        {
                          OFFSET 0.0145 -0.0179 0.0127
                        }
                      }
                    }
                  }
                  JOINT lMid1
                  {
                    OFFSET 5.6954 0.21 2.1184
                    CHANNELS 6 Xposition Yposition Zposition Zrotation Xrotation Yrotation
                    JOINT lMid2
                    {
                      OFFSET 3.9766 -1.54 2.3863
                      CHANNELS 6 Xposition Yposition Zposition Zrotation Xrotation Yrotation
                      JOINT lMid2_End
                      {
                        OFFSET 1.4042 -1.926 1.125
                        CHANNELS 6 Xposition Yposition Zposition Zrotation Xrotation Yrotation
                        End Site
                        {
                          OFFSET 0.014 -0.0193 0.0113
                        }
                      }
                    }
                  }
                }
                JOINT lCarpal2
                {
                  OFFSET 2.0956 0.66 -0.3894
                  CHANNELS 6 Xposition Yposition Zposition Zrotation Xrotation Yrotation
                  JOINT lRing1
                  {
                    OFFSET 5.0395 -0.09 2.4971
                    CHANNELS 6 Xposition Yposition Zposition Zrotation Xrotation Yrotation
                    JOINT lRing2
                    {
                      OFFSET 3.7921 -1.552 1.4806
                      CHANNELS 6 Xposition Yposition Zposition Zrotation Xrotation Yrotation
                      JOINT lRing2_End
                      {
                        OFFSET 1.4655 -1.808 0.9609
                        CHANNELS 6 Xposition Yposition Zposition Zrotation Xrotation Yrotation
                        End Site
                        {
                          OFFSET 0.0147 -0.0181 0.0096
                        }
                      }
                    }
                  }
                  JOINT lPinky1
                  {
                    OFFSET 4.9141 -1.269 0.3591
                    CHANNELS 6 Xposition Yposition Zposition Zrotation Xrotation Yrotation
                    JOINT lPinky2
                    {
                      OFFSET 3.1477 -1.685 0.8462
                      CHANNELS 6 Xposition Yposition Zposition Zrotation Xrotation Yrotation
                      JOINT lPinky2_End
                      {
                        OFFSET 0.8055 -1.585 0.7955
                        CHANNELS 6 Xposition Yposition Zposition Zrotation Xrotation Yrotation
                        End Site
                        {
                          OFFSET 0.0081 -0.0158 0.008
                        }
                      }
                    }
                  }
                }
              }
            }
          }
        }
        JOINT rCollar
        {
          OFFSET -1.7069 20.075 5.0056
          CHANNELS 6 Xposition Yposition Zposition Zrotation Xrotation Yrotation
          JOINT rShldr
          {
            OFFSET -13.6458 -0.047 -4.849
            CHANNELS 6 Xposition Yposition Zposition Zrotation Xrotation Yrotation
            JOINT rForeArm
            {
              OFFSET -28.3255 -0.9759 2.2888
              CHANNELS 6 Xposition Yposition Zposition Zrotation Xrotation Yrotation
              JOINT rHand
              {
                OFFSET -22.1583 -0.53 10.8316
                CHANNELS 6 Xposition Yposition Zposition Zrotation Xrotation Yrotation
                JOINT rThumb1
                {
                  OFFSET -0.786 0.112 2.5817
                  CHANNELS 6 Xposition Yposition Zposition Zrotation Xrotation Yrotation
                  JOINT rThumb2
                  {
                    OFFSET -0.3601 -0.878 4.2331
                    CHANNELS 6 Xposition Yposition Zposition Zrotation Xrotation Yrotation
                    JOINT rThumb2_End
                    {
                      OFFSET -1.8127 -1.216 2.2227
                      CHANNELS 6 Xposition Yposition Zposition Zrotation Xrotation Yrotation
                      End Site
                      {
                        OFFSET -0.0181 -0.0122 0.0222
                      }
                    }
                  }
                }
                JOINT rCarpal1
                {
                  OFFSET -0.9571 1.114 1.7695
                  CHANNELS 6 Xposition Yposition Zposition Zrotation Xrotation Yrotation
                  JOINT rIndex1
                  {
                    OFFSET -4.1246 0.487 4.1451
                    CHANNELS 6 Xposition Yposition Zposition Zrotation Xrotation Yrotation
                    JOINT rIndex2
                    {
                      OFFSET -3.4052 -1.454 2.7682
                      CHANNELS 6 Xposition Yposition Zposition Zrotation Xrotation Yrotation
                      JOINT rIndex2_End
                      {
                        OFFSET -1.4531 -1.795 1.2713
                        CHANNELS 6 Xposition Yposition Zposition Zrotation Xrotation Yrotation
                        End Site
                        {
                          OFFSET -0.0145 -0.018 0.0127
                        }
                      }
                    }
                  }
                  JOINT rMid1
                  {
                    OFFSET -5.6954 0.21 2.1184
                    CHANNELS 6 Xposition Yposition Zposition Zrotation Xrotation Yrotation
                    JOINT rMid2
                    {
                      OFFSET -3.9766 -1.54 2.3863
                      CHANNELS 6 Xposition Yposition Zposition Zrotation Xrotation Yrotation
                      JOINT rMid2_End
                      {
                        OFFSET -1.4042 -1.926 1.125
                        CHANNELS 6 Xposition Yposition Zposition Zrotation Xrotation Yrotation
                        End Site
                        {
                          OFFSET -0.014 -0.0193 0.0113
                        }
                      }
                    }
                  }
                }
                JOINT rCarpal2
                {
                  OFFSET -2.0956 0.66 -0.3894
                  CHANNELS 6 Xposition Yposition Zposition Zrotation Xrotation Yrotation
                  JOINT rRing1
                  {
                    OFFSET -5.0395 -0.09 2.4971
                    CHANNELS 6 Xposition Yposition Zposition Zrotation Xrotation Yrotation
                    JOINT rRing2
                    {
                      OFFSET -3.7921 -1.552 1.4806
                      CHANNELS 6 Xposition Yposition Zposition Zrotation Xrotation Yrotation
                      JOINT rRing2_End
                      {
                        OFFSET -1.4655 -1.808 0.9609
                        CHANNELS 6 Xposition Yposition Zposition Zrotation Xrotation Yrotation
                        End Site
                        {
                          OFFSET -0.0147 -0.0181 0.0096
                        }
                      }
                    }
                  }
                  JOINT rPinky1
                  {
                    OFFSET -4.9141 -1.269 0.3592
                    CHANNELS 6 Xposition Yposition Zposition Zrotation Xrotation Yrotation
                    JOINT rPinky2
                    {
                      OFFSET -3.1477 -1.685 0.8462
                      CHANNELS 6 Xposition Yposition Zposition Zrotation Xrotation Yrotation
                      JOINT rPinky2_End
                      {
                        OFFSET -0.8055 -1.585 0.7955
                        CHANNELS 6 Xposition Yposition Zposition Zrotation Xrotation Yrotation
                        End Site
                        {
                          OFFSET -0.0081 -0.0158 0.008
                        }
                      }
                    }
                  }
                }
              }
            }
          }
        }
      }
    }
  }
  JOINT lThigh
  {
    OFFSET 8.367 -8.2066 0.5982
    CHANNELS 6 Xposition Yposition Zposition Zrotation Xrotation Yrotation
    JOINT lShin
    {
      OFFSET 2.1923 -43.463 -0.4932
      CHANNELS 6 Xposition Yposition Zposition Zrotation Xrotation Yrotation
      JOINT lFoot
      {
        OFFSET 0.7333 -45.8593 -2.6451
        CHANNELS 6 Xposition Yposition Zposition Zrotation Xrotation Yrotation
        End Site
        {
          OFFSET 2.6618 -4.2699 12.3931
        }
      }
    }
  }
  JOINT rThigh
  {
    OFFSET -8.367 -8.2066 0.5982
    CHANNELS 6 Xposition Yposition Zposition Zrotation Xrotation Yrotation
    JOINT rShin
    {
      OFFSET -2.1923 -43.463 -0.4931
      CHANNELS 6 Xposition Yposition Zposition Zrotation Xrotation Yrotation
      JOINT rFoot
      {
        OFFSET -0.7333 -45.8593 -2.6451
        CHANNELS 6 Xposition Yposition Zposition Zrotation Xrotation Yrotation
        End Site
        {
          OFFSET -2.6618 -4.2699 12.3931
        }
      }
    }
  }
}
MOTION
Frames:	4
Frame Time:	0.0333333
0 90.174 2.4664 0 0 -0 0 -1.186 -1.5018 0 0 -0 0 9.964 0.2134 0 0 -0 0 13.134 -3.2573 0 0 -0 0 20.686 -1.6905 0 0 -0 0 7.238 -0.1237 0 0 -0 1.7069 20.075 5.0056 0 0 -0 13.6458 -0.047 -4.849 1.66051 0.0835086 5.75766 28.3255 -0.9759 2.2888 -0.0175111 0.895433 15.7816 22.1583 -0.53 10.8316 7.95139e-016 -1.98785e-016 -0 0.786 0.112 2.5817 5.46658e-016 -3.97569e-016 -0 0.3601 -0.878 4.2331 5.96354e-016 0 -0 1.8127 -1.216 2.2227 3.97569e-016 1.98785e-016 9.54166e-015 0.9571 1.114 1.7695 1.49089e-016 -3.97569e-016 -0 4.1246 0.487 4.1451 6.4605e-016 0 3.18055e-015 3.4052 -1.454 2.7682 5.96354e-016 0 3.18055e-015 1.4531 -1.795 1.2713 8.94531e-016 -1.98785e-016 6.36111e-015 5.6954 0.21 2.1184 6.4605e-016 0 3.18055e-015 3.9766 -1.54 2.3863 5.96354e-016 0 3.18055e-015 1.4042 -1.926 1.125 8.94531e-016 -1.98785e-016 6.36111e-015 2.0956 0.66 -0.3894 1.49089e-016 -3.97569e-016 -0 5.0395 -0.09 2.4971 6.4605e-016 0 3.18055e-015 3.7921 -1.552 1.4806 5.96354e-016 0 3.18055e-015 1.4655 -1.808 0.9609 8.94531e-016 -1.98785e-016 6.36111e-015 4.9141 -1.269 0.3591 6.4605e-016 0 3.18055e-015 3.1477 -1.685 0.8462 5.96354e-016 0 3.18055e-015 0.8055 -1.585 0.7955 8.94531e-016 -1.98785e-016 6.36111e-015 -1.7069 20.075 5.0056 0 0 -0 -13.6458 -0.047 -4.849 -1.4496 0.0636048 -5.0245 -28.3255 -0.9759 2.2888 -1.74811 1.20616 -16.8394 -22.1583 -0.53 10.8316 -1.19271e-015 1.98785e-016 -3.18055e-015 -0.786 0.112 2.5817 -3.97569e-016 1.98785e-016 -3.18055e-015 -0.3601 -0.878 4.2331 -2.98177e-016 1.98785e-016 -3.18055e-015 -1.8127 -1.216 2.2227 -2.98177e-016 3.97569e-016 -0 -0.9571 1.114 1.7695 4.96962e-016 0 -6.36111e-015 -4.1246 0.487 4.1451 -9.93923e-017 3.97569e-016 -0 -3.4052 -1.454 2.7682 -8.94531e-016 5.96354e-016 -0 -1.4531 -1.795 1.2713 -3.97569e-016 3.97569e-016 -0 -5.6954 0.21 2.1184 -9.93923e-017 3.97569e-016 -0 -3.9766 -1.54 2.3863 -8.94531e-016 5.96354e-016 -0 -1.4042 -1.926 1.125 -3.97569e-016 3.97569e-016 -0 -2.0956 0.66 -0.3894 4.96962e-016 0 -6.36111e-015 -5.0395 -0.09 2.4971 -9.93923e-017 3.97569e-016 -0 -3.7921 -1.552 1.4806 -8.94531e-016 5.96354e-016 -0 -1.4655 -1.808 0.9609 -3.97569e-016 3.97569e-016 -0 -4.9141 -1.269 0.3592 -9.93923e-017 3.97569e-016 -0 -3.1477 -1.685 0.8462 -8.94531e-016 5.96354e-016 -0 -0.8055 -1.585 0.7955 -3.97569e-016 3.97569e-016 -0 8.367 -8.2066 0.5982 -4.66115 -1.03232 0.120763 2.1923 -43.463 -0.4932 0.00990601 1.55097 0.177175 0.7333 -45.8593 -2.6451 4.65196 -0.54114 -0.255042 -8.367 -8.2066 0.5982 4.66115 -1.03222 -0.120763 -2.1923 -43.463 -0.4931 -0.00990459 1.5509 -0.177176 -0.7333 -45.8593 -2.6451 -4.65196 -0.541171 0.255041 
3.30737 70.7356 -14.0464 -6.24313 -26.8863 -17.8184 4.44089e-016 -1.186 -1.5018 0.544785 5.49165 0.791123 0 9.964 0.2134 1.02002 10.9901 1.54019 -8.88178e-016 13.134 -3.2573 1.02002 10.9901 1.54019 -8.88178e-016 20.686 -1.6905 -4.41205 24.9337 1.86299 -4.44089e-016 7.238 -0.1237 28.0892 -35.8662 12.3106 1.7069 20.075 5.0056 1.10427 -5.45918 4.01859 13.6458 -0.047 -4.849 -23.6214 49.0076 -49.1219 28.3255 -0.9759 2.2888 25.1379 6.16997 -5.83471 22.1583 -0.53 10.8316 18.9313 -1.57604 4.3404 0.786 0.112 2.5817 -1.05272e-006 -2.8916e-007 2.60942e-006 0.3601 -0.878 4.2331 5.44392e-007 9.68889e-007 -2.65243e-006 1.8127 -1.216 2.2227 -2.42765e-031 -2.18663e-015 -6.36111e-015 0.9571 1.114 1.7695 -0 -2.18663e-015 -0 4.1246 0.487 4.1451 -1.05272e-006 -2.8916e-007 2.60942e-006 3.4052 -1.454 2.7682 5.44392e-007 9.68889e-007 -2.65243e-006 1.4531 -1.795 1.2713 -1.59028e-015 -2.38542e-015 -3.18055e-015 5.6954 0.21 2.1184 -1.05272e-006 -2.8916e-007 2.60942e-006 3.9766 -1.54 2.3863 5.44392e-007 9.68889e-007 -2.65243e-006 1.4042 -1.926 1.125 -1.59028e-015 -2.38542e-015 -3.18055e-015 2.0956 0.66 -0.3894 -0 -2.18663e-015 -0 5.0395 -0.09 2.4971 -1.05272e-006 -2.8916e-007 2.60942e-006 3.7921 -1.552 1.4806 5.44392e-007 9.68889e-007 -2.65243e-006 1.4655 -1.808 0.9609 -1.59028e-015 -2.38542e-015 -3.18055e-015 4.9141 -1.269 0.3591 -1.05272e-006 -2.8916e-007 2.60942e-006 3.1477 -1.685 0.8462 5.44392e-007 9.68889e-007 -2.65243e-006 0.8055 -1.585 0.7955 -1.59028e-015 -2.38542e-015 -3.18055e-015 -1.7069 20.075 5.0056 -12.9287 -1.03553 10.2816 -13.6458 -0.047 -4.849 64.0876 -10.1327 13.9176 -28.3255 -0.9759 2.2888 -5.01517 -0.863684 68.3887 -22.1583 -0.53 10.8316 -5.16663 -30.8153 -15.4426 -0.786 0.112 2.5817 3.18055e-015 -3.97569e-015 -1.59028e-015 -0.3601 -0.878 4.2331 -4.41391e-032 -1.59028e-015 -1.59028e-015 -1.8127 -1.216 2.2227 3.18055e-015 0 -1.59028e-015 -0.9571 1.114 1.7695 -3.18055e-015 -1.59028e-015 -0 -4.1246 0.487 4.1451 -3.18055e-015 1.74931e-014 4.77083e-015 -3.4052 -1.454 2.7682 6.62086e-032 -2.38542e-015 1.59028e-015 -1.4531 -1.795 1.2713 6.36111e-015 -2.38542e-015 -0 -5.6954 0.21 2.1184 -3.18055e-015 1.74931e-014 4.77083e-015 -3.9766 -1.54 2.3863 6.62086e-032 -2.38542e-015 1.59028e-015 -1.4042 -1.926 1.125 6.36111e-015 -2.38542e-015 -0 -2.0956 0.66 -0.3894 -3.18055e-015 -1.59028e-015 -0 -5.0395 -0.09 2.4971 -3.18055e-015 1.74931e-014 4.77083e-015 -3.7921 -1.552 1.4806 6.62086e-032 -2.38542e-015 1.59028e-015 -1.4655 -1.808 0.9609 6.36111e-015 -2.38542e-015 -0 -4.9141 -1.269 0.3592 -3.18055e-015 1.74931e-014 4.77083e-015 -3.1477 -1.685 0.8462 6.62086e-032 -2.38542e-015 1.59028e-015 -0.8055 -1.585 0.7955 6.36111e-015 -2.38542e-015 -0 8.367 -8.2066 0.5982 18.6118 -42.8977 35.8851 2.1923 -43.463 -0.4932 2.01253 35.0951 0.50339 0.7333 -45.8593 -2.6451 4.83296 39.0382 -20.8797 -8.367 -8.2066 0.5982 7.36922 -48.0379 -8.0385 -2.1923 -43.463 -0.4931 1.53398 28.4626 -3.77728 -0.7333 -45.8593 -2.6451 -25.1896 44.2392 7.02023 
3.30737 70.7356 -14.0464 -6.24313 -26.8863 -17.8184 4.44089e-016 -1.186 -1.5018 0.544785 5.49167 0.79114 0 9.964 0.2134 1.02002 10.9901 1.54019 8.88178e-016 13.134 -3.2573 1.02002 10.9901 1.54019 -8.88178e-016 20.686 -1.6905 -4.41205 24.9336 1.86299 0 7.238 -0.1237 28.273 -35.8256 12.5994 1.7069 20.075 5.0056 1.10427 -5.45918 4.01859 13.6458 -0.047 -4.849 -23.6214 49.0076 -49.1219 28.3255 -0.9759 2.2888 24.9967 6.15079 -6.20098 22.1583 -0.53 10.8316 18.9532 -1.58458 4.34351 0.786 0.112 2.5817 3.39182e-007 2.55162e-007 4.06757e-008 0.3601 -0.878 4.2331 -1.59028e-015 2.18663e-015 -6.36111e-015 1.8127 -1.216 2.2227 -2.38542e-015 1.78906e-015 -0 0.9571 1.114 1.7695 -7.95139e-016 1.78906e-015 -0 4.1246 0.487 4.1451 3.39182e-007 2.55162e-007 4.06757e-008 3.4052 -1.454 2.7682 -2.38542e-015 6.55989e-015 -0 1.4531 -1.795 1.2713 7.95139e-016 4.37326e-015 -0 5.6954 0.21 2.1184 3.39182e-007 2.55162e-007 4.06757e-008 3.9766 -1.54 2.3863 -2.38542e-015 6.55989e-015 -0 1.4042 -1.926 1.125 7.95139e-016 4.37326e-015 -0 2.0956 0.66 -0.3894 -7.95139e-016 1.78906e-015 -0 5.0395 -0.09 2.4971 3.39182e-007 2.55162e-007 4.06757e-008 3.7921 -1.552 1.4806 -2.38542e-015 6.55989e-015 -0 1.4655 -1.808 0.9609 7.95139e-016 4.37326e-015 -0 4.9141 -1.269 0.3591 3.39182e-007 2.55162e-007 4.06757e-008 3.1477 -1.685 0.8462 -2.38542e-015 6.55989e-015 -0 0.8055 -1.585 0.7955 7.95139e-016 4.37326e-015 -0 -1.7069 20.075 5.0056 -12.9287 -1.03553 10.2816 -13.6458 -0.047 -4.849 64.0876 -10.1327 13.9176 -28.3255 -0.9759 2.2888 -5.01518 -0.863675 68.3887 -22.1583 -0.53 10.8316 -5.16663 -30.8153 -15.4426 -0.786 0.112 2.5817 -1.59028e-014 -7.95139e-016 -7.95139e-015 -0.3601 -0.878 4.2331 -3.18055e-015 1.59028e-015 -6.36111e-015 -1.8127 -1.216 2.2227 -1.27222e-014 0 -6.36111e-015 -0.9571 1.114 1.7695 -3.18055e-015 -2.38542e-015 -1.59028e-015 -4.1246 0.487 4.1451 -1.27222e-014 1.35174e-014 -1.59028e-015 -3.4052 -1.454 2.7682 -9.54166e-015 2.38542e-015 -7.95139e-015 -1.4531 -1.795 1.2713 -1.27222e-014 3.97569e-015 -6.36111e-015 -5.6954 0.21 2.1184 -1.27222e-014 1.35174e-014 -1.59028e-015 -3.9766 -1.54 2.3863 -9.54166e-015 2.38542e-015 -7.95139e-015 -1.4042 -1.926 1.125 -1.27222e-014 3.97569e-015 -6.36111e-015 -2.0956 0.66 -0.3894 -3.18055e-015 -2.38542e-015 -1.59028e-015 -5.0395 -0.09 2.4971 -1.27222e-014 1.35174e-014 -1.59028e-015 -3.7921 -1.552 1.4806 -9.54166e-015 2.38542e-015 -7.95139e-015 -1.4655 -1.808 0.9609 -1.27222e-014 3.97569e-015 -6.36111e-015 -4.9141 -1.269 0.3592 -1.27222e-014 1.35174e-014 -1.59028e-015 -3.1477 -1.685 0.8462 -9.54166e-015 2.38542e-015 -7.95139e-015 -0.8055 -1.585 0.7955 -1.27222e-014 3.97569e-015 -6.36111e-015 8.367 -8.2066 0.5982 18.6118 -42.8977 35.8851 2.1923 -43.463 -0.4932 2.01253 35.0951 0.50339 0.7333 -45.8593 -2.6451 4.83296 39.0382 -20.8797 -8.367 -8.2066 0.5982 7.36922 -48.0379 -8.0385 -2.1923 -43.463 -0.4931 1.53398 28.4626 -3.77728 -0.7333 -45.8593 -2.6451 -25.1896 44.2392 7.02023 
3.30737 70.7356 -14.0464 -6.24313 -26.8863 -17.8184 -4.44089e-016 -1.186 -1.5018 0.544784 5.49165 0.791127 4.44089e-016 9.964 0.2134 1.02002 10.9901 1.54019 -8.88178e-016 13.134 -3.2573 1.02002 10.9901 1.54019 8.88178e-016 20.686 -1.6905 -4.41204 24.9337 1.86298 -4.44089e-016 7.238 -0.1237 28.4566 -35.7842 12.8879 1.7069 20.075 5.0056 1.10427 -5.45918 4.01859 13.6458 -0.047 -4.849 -23.6214 49.0076 -49.1219 28.3255 -0.9759 2.2888 24.8553 6.13251 -6.56753 22.1583 -0.53 10.8316 18.9752 -1.59312 4.34667 0.786 0.112 2.5817 -1.02463e-006 1.35398e-006 -7.90562e-008 0.3601 -0.878 4.2331 -8.82781e-032 -7.95139e-016 -6.36111e-015 1.8127 -1.216 2.2227 6.76989e-007 5.12313e-007 8.11719e-008 0.9571 1.114 1.7695 -7.95139e-016 -9.93923e-016 -3.18055e-015 4.1246 0.487 4.1451 -1.02463e-006 1.35398e-006 -7.90562e-008 3.4052 -1.454 2.7682 -7.95139e-016 -1.19271e-015 -3.18055e-015 1.4531 -1.795 1.2713 6.76989e-007 5.12313e-007 8.11719e-008 5.6954 0.21 2.1184 -1.02463e-006 1.35398e-006 -7.90562e-008 3.9766 -1.54 2.3863 -7.95139e-016 -1.19271e-015 -3.18055e-015 1.4042 -1.926 1.125 6.76989e-007 5.12313e-007 8.11719e-008 2.0956 0.66 -0.3894 -7.95139e-016 -9.93923e-016 -3.18055e-015 5.0395 -0.09 2.4971 -1.02463e-006 1.35398e-006 -7.90562e-008 3.7921 -1.552 1.4806 -7.95139e-016 -1.19271e-015 -3.18055e-015 1.4655 -1.808 0.9609 6.76989e-007 5.12313e-007 8.11719e-008 4.9141 -1.269 0.3591 -1.02463e-006 1.35398e-006 -7.90562e-008 3.1477 -1.685 0.8462 -7.95139e-016 -1.19271e-015 -3.18055e-015 0.8055 -1.585 0.7955 6.76989e-007 5.12313e-007 8.11719e-008 -1.7069 20.075 5.0056 -12.9287 -1.03553 10.2816 -13.6458 -0.047 -4.849 64.0876 -10.1327 13.9176 -28.3255 -0.9759 2.2888 -5.01518 -0.863667 68.3887 -22.1583 -0.53 10.8316 -5.16664 -30.8153 -15.4427 -0.786 0.112 2.5817 -4.41391e-031 -7.95139e-015 -3.18055e-015 -0.3601 -0.878 4.2331 -6.36111e-015 -4.77083e-015 -4.77083e-015 -1.8127 -1.216 2.2227 -6.36111e-015 -5.56597e-015 -6.36111e-015 -0.9571 1.114 1.7695 3.18055e-015 -2.38542e-015 -0 -4.1246 0.487 4.1451 -6.36111e-015 1.19271e-014 3.18055e-015 -3.4052 -1.454 2.7682 -3.18055e-015 -4.77083e-015 -3.18055e-015 -1.4531 -1.795 1.2713 -3.18055e-015 -3.18055e-015 -3.18055e-015 -5.6954 0.21 2.1184 -6.36111e-015 1.19271e-014 3.18055e-015 -3.9766 -1.54 2.3863 -3.18055e-015 -4.77083e-015 -3.18055e-015 -1.4042 -1.926 1.125 -3.18055e-015 -3.18055e-015 -3.18055e-015 -2.0956 0.66 -0.3894 3.18055e-015 -2.38542e-015 -0 -5.0395 -0.09 2.4971 -6.36111e-015 1.19271e-014 3.18055e-015 -3.7921 -1.552 1.4806 -3.18055e-015 -4.77083e-015 -3.18055e-015 -1.4655 -1.808 0.9609 -3.18055e-015 -3.18055e-015 -3.18055e-015 -4.9141 -1.269 0.3592 -6.36111e-015 1.19271e-014 3.18055e-015 -3.1477 -1.685 0.8462 -3.18055e-015 -4.77083e-015 -3.18055e-015 -0.8055 -1.585 0.7955 -3.18055e-015 -3.18055e-015 -3.18055e-015 8.367 -8.2066 0.5982 18.6118 -42.8977 35.8851 2.1923 -43.463 -0.4932 2.01253 35.0952 0.503393 0.7333 -45.8593 -2.6451 4.83296 39.0382 -20.8797 -8.367 -8.2066 0.5982 7.36923 -48.0378 -8.03849 -2.1923 -43.463 -0.4931 1.53399 28.4626 -3.77728 -0.7333 -45.8593 -2.6451 -25.1896 44.2392 7.02021 
